<svg xmlns="http://www.w3.org/2000/svg" id="Layer_1" data-name="Layer 1" viewBox="0 0 200 200"><defs><style>.cls-2,.cls-3,.cls-4{stroke:#fff}.cls-2,.cls-4{stroke-miterlimit:10}.cls-2,.cls-3,.cls-4{stroke-width:.86px;fill:none}.cls-3,.cls-4{stroke-linecap:round}.cls-3{stroke-linejoin:round}</style></defs><path d="m155.24 145.27-20.33 11-3.59-6.64.06-.1 8-4.17h.15c.3-.09 1.3-.14 2.65-.26a30.3 30.3 0 0 0 8-1.59c1.54-.61 3.28-.69 4.37.55a3.5 3.5 0 0 1 .69 1.2Z"/><path d="M118.26 158.28c.31.07 1.21.5 2.46 1a30 30 0 0 0 7.8 2.41c1.64.19 3.22.95 3.59 2.56a3.7 3.7 0 0 1 0 1.38.4.4 0 0 1 0 .1H109v-7.57h9.18Z" style="stroke:#000;stroke-miterlimit:10;stroke-width:.86px"/><path d="m117.52 131.64-.07-1.88c.03.6.05 1.24.07 1.88M90.78 87.21A3 3 0 0 0 92 85.1a1.11 1.11 0 0 0-1.18-1.18 1.4 1.4 0 0 1-.19.33l.09-1.81.2-3.66a.79.79 0 0 0-.68-.91H90l.62-4.25h4.62l.11-1.32h-5.87l-.83 5.59h-2.8a2.55 2.55 0 1 0-2.73 2.73l.08 1.54.08 1.53h-.15a2.92 2.92 0 0 0-2.62 2.67l.1 5.06-.26.09a74.5 74.5 0 0 1-12.81 3.22c-3.44.47-5.9.29-7-.64-4.51-3.75 3.4-26.53 7.13-30.2 2.16-2.14 6.58-3.06 12-4.11a2.82 2.82 0 0 1 1.24-1.67h.06A25.1 25.1 0 0 1 91.05 58l.37.13a2 2 0 0 1 1.35 1.66s8.09.9 9.53 2.58c3.68 4.31 7.43 8.7 10.25 11.72.2.21 5.48-4.73 7.32-9.56h.06s2 3 5.41 2.44c-.27.54-9.31 18.57-13.6 17-3.63-1.34-7.57-4.3-11.76-7.82-1.63-1.43 4.91 27.85 5.02 28.45h-4.26l-14.55.08H84l-17.47.09a68 68 0 0 1 .86-9.36 124 124 0 0 0 13-3.9l.26.08a18 18 0 0 0 3.26 1.09l.12 2a.77.77 0 0 0 .69.8h4.84a.77.77 0 0 0 .69-.8l.12-2.22c1.03-.4 1.63-1 1.63-1.46a.94.94 0 0 0-1.1-1h-.05.08A2.23 2.23 0 0 0 92 88.35a1 1 0 0 0-1.14-1.07Z"/><path d="M118.1 150.71h13.97m17.12 0h6.06v8.12H44.82v-8.12h62.63" class="cls-2"/><path d="M44.82 150.71h40.45v8.12H44.82z"/><path d="M132.92 128.07h28.87v44.15H38.24v-44.15h63.83" class="cls-2"/><circle cx="53.97" cy="132.38" r="1.61" class="cls-2"/><circle cx="48.28" cy="132.38" r="1.61" class="cls-2"/><circle cx="42.59" cy="132.38" r="1.61" class="cls-2"/><path d="M138 47.46c-.36 1.54-2.9 14-3.45 16.78m-.04-.01a7.36 7.36 0 0 0-5.92-1.07m-7.23-.36c-5.22-1.72-10.36 1.43-10.36 1.43.43-5 .83-17.76.83-17.76 8.39-3.81 13.2 1.43 13.74 2.07v.06c2.2-3.61 9.32-3.81 12.36-1.15" class="cls-3"/><path d="M88.8 77.87h-5.09a.8.8 0 0 0-.69.91l.1 1.82.08 1.54.08 1.53v.98m7.33-.4.09-1.81.2-3.66a.79.79 0 0 0-.68-.91h-.4m-5.93 14.81.12 2a.77.77 0 0 0 .69.8h4.84a.77.77 0 0 0 .69-.8l.12-2.22v-.07" class="cls-2"/><path d="M83.3 84.49v.08c.86 2.24 6.08 1.16 7.28-.32a1.4 1.4 0 0 0 .19-.33" class="cls-2"/><path d="M90.79 83.92h0A1.11 1.11 0 0 1 92 85.1a3 3 0 0 1-1.2 2.11 5.73 5.73 0 0 1-4.7 1.06m4.74-.99A1 1 0 0 1 92 88.35 2.23 2.23 0 0 1 90.89 90h-.08a6.74 6.74 0 0 1-4.62.83" class="cls-4"/><path d="M90.85 90.05h.05A.94.94 0 0 1 92 91c0 .49-.58 1.09-1.63 1.53a10.67 10.67 0 0 1-6.46.23 18 18 0 0 1-3.26-1.09m2.62-9.53c2-.79 2.53 1 4.51 1.46h0a4 4 0 0 0 1.27.06h.14a2.25 2.25 0 0 0 1.5-1.2" class="cls-4"/><path d="m89.19 83.56.83-5.69.62-4.25 4.62-.02.11-1.32h-5.89l-.83 5.59-.83 5.57" class="cls-3"/><path d="M83.31 80.61h-.19a2.55 2.55 0 1 1 2.73-2.73v.18" style="stroke:#000;stroke-width:.86px;fill:none;stroke-linejoin:round"/><path d="M86.08 104.72h-2.26" class="cls-2"/><path d="M81.91 36.64c.13-.84.27-1.83.48-2.83a9.84 9.84 0 0 1 1.93-4.53c2.32-2.52 4.77-1.53 6.82.66a16 16 0 0 1 1.62 2 25.2 25.2 0 0 1 3.3 7.06c.83 3.47-4.18 11.2-5.58 11.73a2.3 2.3 0 0 1-.51.14c-2.07.36-4.66-1.52-5.52-3.35" class="cls-4"/><path d="M80.88 57.92c.1-5.82-.15-11.11.43-16.91m8.6 9.66.06.24c.47 2.3.57 5.11 1.45 7.19v.11" class="cls-2"/><path d="M82.71 37.7a5 5 0 0 0-.87-1c-2.3-2-3.89 2.42-3 3.69A2.08 2.08 0 0 0 81 41h.26a2.1 2.1 0 0 0 .55-.21" class="cls-4"/><path d="M92.74 32c.55 0 8.35-1.5 7.27-3.69-.62-1.26-4.75 0-8.89 1.65-3.92 1.56-7.85 3.46-8.75 3.87l-.15.07" class="cls-2"/><path d="M91.68 39.61a4 4 0 0 1 2.46-.23m-4.93.3a2 2 0 0 0-2.45.16m-5.36-1.36a2.47 2.47 0 0 1-1.58.6m11.83.54c-.5 1.1 0 2.86.22 4 .11.79.27 2.31-1.2 1.78" class="cls-4"/><path d="M117.35 126.5c-.09-2.18-.2-3.85-.35-5.18-1.17-10.38-9.81-16.5-30.86-16.6m32.12 53.82v-.34c-.21-6.48-.35-11.87-.47-16.38v-.67c-.09-3.76-.17-6.89-.24-9.51 0-.66 0-1.28-.06-1.88 0-1.19-.07-2.27-.11-3.25m-14.59 5.07c0-.06 0-.14-.06-.22l-.18-.65c-.27-.93-.62-2.18-.75-2.63H81c-6.38-.21-10-3.72-12.09-8.4-2-4.51-2.42-10.11-2.33-14.86a66.4 66.4 0 0 1 .86-9.36c.07-.41.12-.66.13-.74" class="cls-2"/><path d="M118.07 158.21h-9c-1.06-6.19-2.29-11.68-3.46-16.37-1-4.14-2-7.66-2.83-10.46l-.18-.65m34.79 9.44-4.6-12.08c-1.73-4.52-3.19-8.34-3.47-9-4.48-11.14-4.91-14.4-27.31-14.41h-1.32l-14.55.08H84l-17.47.09" class="cls-2"/><path d="M117.34 126.49c.66 1.37 2.1 3.86 3.87 6.79 1.61 2.66 3.48 5.68 5.27 8.52s3.68 5.72 5 7.71l7.9-4.21-1.38-3.49c-.19-.5-.41-1.07-.63-1.66" class="cls-2"/><path d="M86.14 46.14a2 2 0 0 0 3 1m36.59 17.21.21-.31c1.42-2.29.18-4.54.27-5.2.23-1.57 1.79-1.08 2.19 1.14a10.5 10.5 0 0 1 .13 3.17A4.08 4.08 0 0 1 125.4 67h0c-.27.54-9.31 18.57-13.6 17-3.63-1.34-7.57-4.3-11.76-7.82-1.68-1.41 5 27.92 5.11 28.56h-3.13" class="cls-4"/><path d="M123.57 63.2a4 4 0 0 1-.22.36m2.35.76a2 2 0 0 0 .23-.28c1.1-1.73.37-6.4-1.1-6.62a.76.76 0 0 0-.41.06c-1.72.68.9 2.72-.84 5.71" class="cls-4"/><path d="M123.35 63.57a4 4 0 0 0 .22-.37h0a3.53 3.53 0 0 0 .38-2.53c-.09-.54-.63-2.12-1.22-2.36a.79.79 0 0 0-1.06 1c.84 2.32.4 3.11-.24 3.56s-1.19.52-1.39 1.1a5 5 0 0 1-.18.51c-1.84 4.83-7.12 9.77-7.32 9.56-2.82-3-6.57-7.41-10.25-11.72-1.44-1.68-9.53-2.58-9.53-2.58a2 2 0 0 0-1.35-1.66l-.36-.08a25.1 25.1 0 0 0-10.09.1h0-.06a2.82 2.82 0 0 0-1.24 1.67c-5.4 1-9.82 2-12 4.11-3.74 3.67-11.66 26.45-7.14 30.2 1.12.93 3.58 1.11 7 .64a74.5 74.5 0 0 0 12.83-3.22l.26-.09-.1-5.06a2.92 2.92 0 0 1 2.62-2.67" class="cls-4"/><path d="m125.57 48.39-.01.15-.72 8.82" class="cls-3"/><path d="M119.93 64.52s2 3 5.41 2.44" class="cls-4"/><path d="M66.43 95.62c.31 0 .63-.09 1-.16a124 124 0 0 0 13-3.9l1.21-.41" style="stroke-width:.86px;fill:none;stroke-linejoin:round;stroke:#fff"/><path d="M93.51 41.08a.4.4 0 0 1 0 .8.4.4 0 0 1 0-.8m-4.86 0a.4.4 0 1 1-.4.4.4.4 0 0 1 .4-.4"/><path d="M109.01 165.91v1.75h23.15v-1.9h-23.15z" class="cls-3"/><path d="m135.08 156.18 12.18-6.56" style="stroke-miterlimit:10;stroke-width:.86px;fill:none;stroke:#fff"/><path d="m134.98 156.39.83 1.53 20.36-10.99-.9-1.68-.03.02-20.33 10.98h-.01z" class="cls-3"/><path d="M74.59 112c.11 4-2.42 6.49-5.71 7.67a14 14 0 0 1-4 .77" class="cls-4"/><path d="M139.49 145.28c.3-.09 1.3-.14 2.65-.26a30.3 30.3 0 0 0 8-1.59c1.54-.61 3.28-.69 4.37.55a3.5 3.5 0 0 1 .69 1.2v.09h0l-20 10.85-3.69-6.47Z" class="cls-3"/><path d="M81.52 85.67c-2.29.41-10.85 1.69-13.46 2a50.2 50.2 0 0 1 3.86-13.07" style="stroke-miterlimit:10;stroke-width:.86px;fill:none;stroke-linecap:round;stroke:#fff"/><path d="M136.09 136.54h25.49m-43.89 0h5.41m-84.89 0h65.96" class="cls-2"/></svg>