<svg xmlns="http://www.w3.org/2000/svg" id="Layer_1" data-name="Layer 1" viewBox="0 0 200 200"><defs><style>.cls-1,.cls-2,.cls-3{fill:none;stroke-width:.86px;stroke:#000}.cls-1,.cls-2{stroke-miterlimit:10}.cls-2,.cls-3{stroke-linecap:round}.cls-3{stroke-linejoin:round}</style></defs><path d="M122.27 72.29c1.46-.33 2.64-.61 3.4-.83-2.07-2.4-2.9-3.6-4.25-5.31 0 0 .27 1.86.84 6.12Zm1 7.46v.09c1.47 10.26 3.19 21.6 3.31 23.81l-39.26-.07c.13-7.06 3-26.83 4.65-37-.87.36-16.18 6-18 4.15v-.05c-1.27-7.28-2.9-15.22-3.83-21.2l4.3-1.87c.67 2.09 3.59 9.74 5.42 13.75a81.3 81.3 0 0 1 13.37-9.98c3-1.62 7.9-1.42 7.9-1.42a2.83 2.83 0 0 1 1.56-2.16l.29-.11c3.35-.92 9.49-.26 10.26.21a3.53 3.53 0 0 1 1.28 2s8.17 1.2 10.57 3.17c0 0 7.28 9.95 10.92 17.76 1.34 2.87.83 4.63-1.61 6-1.4.94-6.2 2.06-11.11 2.92Zm-13.55-4c.18-.48-.93-1.83-2.24-1.94h-.13l.5-4.28c0-.53-2-1-4.41-1s-4.4.44-4.4 1a.3.3 0 0 0 .06.17l.54 4.75a.2.2 0 0 0 0 .08 1 1 0 0 0-1.06 1.09 2.14 2.14 0 0 0 1.14 1.59.93.93 0 0 0-1.13.87 2 2 0 0 0 1.11 1.4.83.83 0 0 0-1.09.76c0 .48.68 1.08 1.9 1.5v.24l.3 2.69a9.5 9.5 0 0 0 2.57.38 12.5 12.5 0 0 0 2.81-.38l.28-2.54v-.16a19 19 0 0 0 3.68-1.06l.17-.14c-.89-.89-1.53-3.77-.58-5.02Zm-6.94 105.17v-.06H86.59c-.47-2.66 1.51-3.83 3.6-4.07 4.35-.51 9.57-3.28 10.38-3.45h8.92v2.79a19 19 0 0 1-3.12.67c-2.09.27-4.08 1.44-3.59 4.12"/><path d="M102.78 180.86v.06c-.49-2.68 1.5-3.85 3.59-4.09a19 19 0 0 0 3.12-.67c3.43-1 6.64-2.65 7.26-2.78h9.15c0 4.09-.05 6.8 0 7.5Zm4.32-151.19a.42.42 0 0 1 .39.44.43.43 0 0 1-.45.39.42.42 0 0 1-.38-.45.4.4 0 0 1 .44-.38m-5.49-.15a.42.42 0 0 1-.06.83.42.42 0 1 1 .06-.83"/><path d="M92 66.61c-.87.36-16.18 6-18 4.15" class="cls-1"/><path d="M112.55 26.33c-.12-.84-.25-1.82-.44-2.82a9.9 9.9 0 0 0-1.86-4.51c-2.29-2.56-4.75-1.6-6.84.55a16 16 0 0 0-1.64 2 25 25 0 0 0-3.41 7c-.88 3.46 4 11.26 5.41 11.82a3 3 0 0 0 .52.14c2.06.39 4.68-1.45 5.56-3.26" class="cls-2"/><path d="M113.26 47.93c0-5.92.32-11.3-.17-17.2m-8.75 9.52a2 2 0 0 0 0 .24c-.52 2.33-.66 5.21-1.62 7.28" class="cls-1"/><path d="M111.73 27.38a5.7 5.7 0 0 1 .86-1c2.34-2 3.89 2.45 2.93 3.71a2.22 2.22 0 0 1-2.41.54 2.4 2.4 0 0 1-.54-.22" class="cls-2"/><path d="M101.79 21.53c-.56-.06-8.33-1.63-7.22-3.81.64-1.24 4.76.08 8.86 1.78 3.9 1.62 7.8 3.58 8.7 4l.14.06" class="cls-1"/><path d="M106.31 27.82a2.69 2.69 0 0 1 2.42.43m4.27-.06a2.43 2.43 0 0 0 1.56.62M100.88 28c.66-.3 2.15-.22 2.42.43.43 1.05-.21 3.23-.48 4.48-.19.85-.49 2.5 1 2.06m2.05 2.1a1.75 1.75 0 0 1-2.72-.19" class="cls-2"/><path d="M109.73 149.14c-.09 10.66-.22 19.86-.26 24.23v2.67" class="cls-1"/><path d="M119.68 106.77c-.12 4.28 2.81 6.86 6.47 7.91a14.4 14.4 0 0 0 3.22.53" class="cls-2"/><path d="M125.86 180.86v-7.5c.11-12.45.36-37.78.25-58.68 0-3.72-.05-7.3-.1-10.64m-23.23 76.88 23.08.1h0v-.14m-21.7-69.06a178.5 178.5 0 0 0 5.62 37.31c2.11 8.5 4.56 16.63 6.92 24.13v.1c-.62.13-3.83 1.79-7.26 2.78a19 19 0 0 1-3.12.67c-2.09.24-4.08 1.41-3.59 4.09" class="cls-3"/><path d="M88.11 103.7c.62 27.59 6.66 51.3 12.44 69.66h0c-.81.17-6 2.94-10.38 3.45-2.09.24-4.07 1.41-3.6 4.07v0H103" class="cls-3"/><path d="M100.18 173.37h9.14m7.42 0h9.14" class="cls-1"/><path d="M125.86 181.02v1.74h-23.08v-1.89h23.08zm-23.11-.1v1.84H86.59v-1.89h16.16zm20.56-101.08c1.47 10.26 3.19 21.6 3.31 23.81l-39.26-.07c.13-7.06 3-26.83 4.65-37 0-.29.09-.56.13-.83" class="cls-3"/><path d="M74.49 47.45c1.7-2.47.27-6.63-.21-8.28-.28-1-1.73-.92-1.58.5.12 1.22.29 2.51-.21 3m-.07.16a.2.2 0 0 0 0-.08h0C71.45 40 68.3 35 66.67 36a.65.65 0 0 0-.29.84 3.3 3.3 0 0 0 .79 1.08 9 9 0 0 1 2.4 3.39m-3.24-4.44a1.88 1.88 0 0 0-1.52-.74.82.82 0 0 0-.85.66c-.16.5.19.9.54 1.23h0a21.5 21.5 0 0 1 3.31 4.33" class="cls-2"/><path d="M70 49.52c-1.4-.16-2.49-3.41-2.86-4.48a13.6 13.6 0 0 0-2.68-4.22c-.42-.49-1.28-1.3-1.23-2a1 1 0 0 1 1.28-.71m5.95 6.55c-.4-1.32 1.21-1.87 2-1.84" class="cls-2"/><path d="m79.55 61.72.31-.28a81.3 81.3 0 0 1 13.37-10.06c3-1.62 7.9-1.42 7.9-1.42a2.83 2.83 0 0 1 1.56-2.16l.29-.11c3.35-.92 9.49-.26 10.26.21h0a3.53 3.53 0 0 1 1.28 2s8.17 1.2 10.57 3.17c0 0 7.28 9.95 10.92 17.76 1.34 2.87.83 4.63-1.61 6-1.47.84-6.22 2-11.13 2.82-5.79 1-11.79 1.7-12.79 1.17a1 1 0 0 1-.24-.18c-.83-.86-1.47-3.73-.52-5a1.47 1.47 0 0 1 .76-.52c4.19-1.21 8.62-2.21 11.77-2.94 1.46-.33 2.64-.61 3.4-.83-2.07-2.4-2.9-3.6-4.25-5.31 0 0 .27 1.86.84 6.12" class="cls-3"/><path d="M107.24 74.84c-.6 1.55-3.59 1.28-4.9 1.07-.46-.07-2.34-.61-2.67-1.45a.2.2 0 0 1 0-.08" class="cls-1"/><path d="M99.68 74.47h0a1 1 0 0 0-1.06 1.09 2.14 2.14 0 0 0 1.14 1.59 7 7 0 0 0 4.75.84m-4.77-.83a.93.93 0 0 0-1.13.87 2 2 0 0 0 1.11 1.4 7.6 7.6 0 0 0 4.67.75" class="cls-2"/><path d="M99.7 79.45a.83.83 0 0 0-1.09.76c0 .48.68 1.08 1.9 1.5a12 12 0 0 0 5.9.23 19 19 0 0 0 3.68-1.06m-.37-5.15c.18-.48-.93-1.83-2.24-1.94" class="cls-2"/><path d="m99.08 69.47.02.17.54 4.75.01.06m8.21-4.98-.01.03-.5 4.28-.12 1.07" class="cls-3"/><path d="M99.1 69.64a.3.3 0 0 1-.06-.17c0-.53 2-1 4.4-1s4.41.44 4.41 1v0c-.06.52-2 .94-4.4.94-2.19.03-4-.32-4.35-.77m7.34 12.46-.28 2.54a12.5 12.5 0 0 1-2.81.38 9.5 9.5 0 0 1-2.57-.38l-.3-2.69M73.92 70.71c-1.27-7.28-2.9-15.22-3.83-21.2h0l4.3-1.87c.67 2.09 3.59 9.74 5.42 13.75" class="cls-3"/><path d="M104.61 67.17a2.6 2.6 0 0 0 .72-2 12 12 0 0 0-.86-1.64c-.63-1.44 0-2.49 1-3.48m-3.39 7.12a2.6 2.6 0 0 0 .72-2 13 13 0 0 0-.86-1.64c-.64-1.44 0-2.49 1-3.48" style="fill:none;stroke-width:.86px;stroke-miterlimit:10;stroke-linecap:round;stroke:#fff"/><path d="M116.39 173.37c-1.39.54-6 2.88-10 3.35-2.1.24-3.63 1-3.59 4.37" style="fill:none;stroke-width:.86px;stroke-linejoin:round;stroke:#fff"/><path d="M109.14 75.41c3.74-2 10-3.11 13.22-3.88" style="fill:none;stroke-width:.86px;stroke-linejoin:round;stroke:#fff;stroke-linecap:square"/><path d="m124 80.36-.78.14c-5.9 1-12.44 1-14 .23" style="fill:none;stroke-width:.86px;stroke-linecap:round;stroke-linejoin:round;stroke:#fff"/></svg>